PathFileType	4	(X/Y/Z)	s01c0401.trc
DataRate	CameraRate	NumFrames	NumMarkers	Units	OrigDataRate	OrigDataStartFrame	OrigNumFrames
200	200	4	48	mm	200	750	2000
Frame#	Time	racr			lacr			c7			jug			rlel			rdr			llel			ldr			s2			lic			ric			lasi			rasi			rpsi			lpsi			rgt			lgt			rth1			rth2			rth3			rth4			rlfc			rsh1			rsh2			rsh3			rsh4			rlmal			rmmal			rcal			rtoe			rmt5			lth1			lth2			lth4			lth3			llfc			lsh1			lsh2			lsh3			lsh4			llmal			lmmal			lcal			ltoe			lmt5			SBIKE			LBIKE			RBIKE			
		X1	Y1	Z1	X2	Y2	Z2	X3	Y3	Z3	X4	Y4	Z4	X5	Y5	Z5	X6	Y6	Z6	X7	Y7	Z7	X8	Y8	Z8	X9	Y9	Z9	X10	Y10	Z10	X11	Y11	Z11	X12	Y12	Z12	X13	Y13	Z13	X14	Y14	Z14	X15	Y15	Z15	X16	Y16	Z16	X17	Y17	Z17	X18	Y18	Z18	X19	Y19	Z19	X20	Y20	Z20	X21	Y21	Z21	X22	Y22	Z22	X23	Y23	Z23	X24	Y24	Z24	X25	Y25	Z25	X26	Y26	Z26	X27	Y27	Z27	X28	Y28	Z28	X29	Y29	Z29	X30	Y30	Z30	X31	Y31	Z31	X32	Y32	Z32	X33	Y33	Z33	X34	Y34	Z34	X35	Y35	Z35	X36	Y36	Z36	X37	Y37	Z37	X38	Y38	Z38	X39	Y39	Z39	X40	Y40	Z40	X41	Y41	Z41	X42	Y42	Z42	X43	Y43	Z43	X44	Y44	Z44	X45	Y45	Z45	X46	Y46	Z46	X47	Y47	Z47	X48	Y48	Z48	
750	3.7500	721.344116	1286.277222	-16.928480	751.659607	1254.889893	-399.403778	735.149170	1381.694580	-206.860809	723.537842	1212.236938	-199.953247	542.505188	1052.981079	61.924641	698.318787	891.742432	-36.623463	567.057617	1067.722412	-544.481323	698.231384	892.957214	-441.197815	194.553619	1213.474976	-224.780457	368.505280	1205.476562	-395.916931	344.547516	1190.101074	-61.731155	360.108978	1148.773315	-368.328064	371.901154	1142.562134	-95.371956	230.304947	1246.234375	-171.673019	227.984741	1256.075684	-276.344757	284.827545	1079.794556	-44.161217	300.866058	1079.895874	-420.339874	351.190826	959.159790	-33.631584	396.448914	890.210266	-41.461311	440.246155	812.368164	-56.489582	444.404053	918.018494	-52.909676	474.773895	703.740540	-83.266739	417.840881	596.654907	-53.139915	388.514374	517.326843	-61.375713	349.585785	438.545685	-75.182304	431.644348	502.987579	-101.096710	282.883026	332.783508	-98.038589	324.041748	339.827545	-177.364731	233.323975	317.603149	-153.351761	486.217194	221.630066	-126.468109	374.879608	221.672318	-62.390427	361.533661	972.477478	-439.866547	425.733154	913.522583	-432.115051	461.510193	950.957397	-416.245117	480.580444	848.763855	-421.290314	513.465027	748.004578	-405.919739	404.865173	711.928711	-441.319427	328.962250	670.645630	-435.575104	252.127213	633.392944	-423.171814	356.653748	624.457153	-404.508789	139.990921	580.404907	-409.523346	163.793137	559.172974	-330.095367	87.176506	597.902771	-365.119415	211.057205	349.268860	-371.325897	139.924652	428.889862	-436.877960	-270.223969	878.160889	-264.646942	-11.962099	84.697083	-453.401855	-20.232313	80.835686	-53.547180	
751	3.7550	721.625671	1286.773926	-18.454382	750.775330	1255.504761	-400.954437	734.214294	1382.501221	-208.381256	723.504456	1212.953979	-201.566818	543.299316	1053.432495	62.089268	698.335510	891.605835	-36.628330	566.476562	1067.313843	-545.104797	697.987122	892.840820	-441.359619	194.389404	1211.489502	-223.518814	367.369476	1205.178711	-395.549133	345.319122	1188.201904	-60.892162	359.892639	1148.378784	-367.738464	372.450287	1140.531128	-94.735931	230.558670	1244.011841	-170.425934	227.472061	1254.552002	-274.833679	284.428955	1077.165405	-44.192406	301.518158	1080.502930	-420.358521	349.133179	955.428955	-33.691967	393.048492	885.684998	-41.556313	435.364197	807.032471	-56.663059	441.179626	912.451050	-52.481701	467.820557	697.390503	-83.239731	411.474091	590.171326	-53.091133	382.869598	510.562134	-61.428589	344.568817	431.482880	-75.205879	425.909546	496.579498	-101.056503	278.386475	325.693054	-98.462509	318.997040	332.517700	-177.670135	229.060455	311.793396	-153.428360	480.359100	211.441818	-126.891167	369.084686	213.463913	-62.676537	364.937561	975.400452	-440.662842	430.628326	918.203735	-433.278778	465.458527	956.367065	-416.841644	487.227081	854.703247	-422.736847	521.896851	754.330933	-407.504120	413.052338	718.473022	-442.458801	337.015533	677.744263	-436.475311	260.024231	640.880554	-423.694611	364.497620	631.199585	-405.729675	149.690857	587.269165	-408.469940	171.893295	567.129517	-329.972076	95.176643	606.269043	-365.212616	217.349808	356.847961	-371.324341	146.794586	436.900330	-436.830627	-270.223450	878.142944	-264.710449	-11.961367	84.662415	-453.422455	-20.217148	80.801338	-53.564430	
752	3.7600	721.860413	1287.403687	-19.876635	749.915955	1255.980347	-402.607056	733.312988	1383.339844	-210.023605	723.572388	1213.976685	-203.322815	544.173645	1053.872070	62.232861	698.402283	891.439941	-36.590706	565.666748	1066.834961	-546.043457	697.718445	892.796631	-441.530273	194.398956	1209.513672	-222.103973	366.066071	1205.005371	-395.206207	346.207367	1186.180908	-60.166222	359.506592	1148.105591	-367.131592	373.107117	1138.434448	-94.239494	230.861771	1241.751587	-169.060150	226.963165	1253.071533	-273.170593	284.267273	1074.442139	-44.258865	301.940186	1081.268066	-420.366028	347.077728	951.837524	-33.644936	389.630188	881.175598	-41.685848	430.391479	801.826355	-56.874176	438.261780	907.102539	-52.743629	460.613159	691.351501	-83.543709	404.916321	583.857422	-53.057507	376.835571	504.096283	-61.449089	339.124908	424.743347	-75.144913	420.025543	490.433258	-101.054688	273.426422	319.062225	-99.141411	314.112701	325.597015	-177.485413	224.380310	306.206055	-153.506409	473.974731	201.507095	-127.315826	362.830658	205.559982	-63.025875	367.954224	978.438782	-441.412842	435.078461	922.930786	-434.568390	468.969849	961.781311	-417.634796	493.336853	860.717163	-424.226959	530.087097	760.847961	-409.315887	421.264282	725.113342	-443.556793	345.214905	684.752258	-437.327820	267.675903	648.257690	-424.458221	372.415863	638.010620	-406.772461	161.364273	592.781433	-406.152039	180.216248	574.769348	-329.854553	103.367142	614.265137	-365.315277	224.244431	364.084259	-371.172424	154.075089	444.581635	-436.721039	-270.172852	878.095276	-264.759796	-11.955803	84.634460	-453.432922	-20.231266	80.809982	-53.587887	
753	3.7650	722.118469	1288.160278	-21.499458	749.052246	1256.380981	-404.359253	732.492554	1384.259033	-211.825073	723.581848	1215.047607	-205.008118	545.242798	1054.389160	62.383698	698.524536	891.259521	-36.473255	564.857178	1066.385986	-546.913818	697.481873	892.809631	-441.702057	194.526398	1207.693970	-220.488388	364.612518	1204.975586	-394.879395	347.266388	1184.038208	-59.493038	359.101715	1148.097168	-366.715668	373.870239	1136.319092	-93.866844	231.137360	1239.743652	-167.376709	226.491898	1251.584961	-271.399719	284.277557	1071.859009	-44.367130	302.211914	1082.030273	-420.461548	345.068329	948.245789	-33.652573	386.159149	876.811157	-41.898849	425.169342	796.705505	-56.550236	435.397552	901.816101	-53.364635	453.134155	685.513184	-83.826752	398.261658	577.819153	-53.128719	370.604828	497.872284	-61.427238	333.373779	418.296051	-75.096268	413.707977	484.446259	-100.985435	268.332123	312.766785	-99.391685	308.983490	319.163269	-177.187546	219.385864	301.052460	-153.488113	467.180511	191.794952	-127.809814	356.171417	198.065552	-63.225643	370.612061	981.491333	-442.145630	439.069855	927.548645	-435.809204	472.121521	967.211121	-418.720032	498.808746	866.769287	-425.818695	538.003113	767.354126	-411.205475	429.473694	731.836548	-444.632538	353.377350	691.739929	-438.157654	275.470764	655.648743	-425.334869	380.582733	644.868958	-407.689911	172.997879	598.064331	-403.808899	188.524689	582.140930	-329.711426	111.767319	621.793152	-365.231659	231.806519	371.231049	-371.074066	161.769791	451.900543	-436.562439	-270.221558	878.081665	-264.796906	-11.949375	84.623741	-453.435303	-20.205544	80.747742	-53.564800	
